<svg xmlns="http://www.w3.org/2000/svg" width="256" height="256" viewBox="0 0 67.733 67.733"><defs><clipPath id="a" clipPathUnits="userSpaceOnUse"><path d="M29.696 28.623h81.966v81.967H29.696Zm39.492 26.963q-1.099 0-1.779.732-.68.733-.68 1.831v1.256q-1.413-1.779-3.82-2.93-2.353-1.15-5.126-1.15-3.453 0-6.33 1.83-2.878 1.831-4.552 5.127-1.622 3.244-1.622 7.325 0 4.08 1.622 7.376 1.674 3.244 4.551 5.075 2.93 1.831 6.488 1.831 2.72 0 5.074-1.255 2.355-1.308 3.715-3.14v1.36q0 1.1.68 1.832.68.68 1.779.68 1.099 0 1.779-.732.732-.733.732-1.78V58.15q0-1.15-.732-1.83-.68-.733-1.78-.733Zm-10.673 23.7q2.46 0 4.343-1.256 1.935-1.256 2.982-3.453 1.098-2.197 1.098-4.97 0-2.72-1.098-4.918-1.047-2.197-2.982-3.453-1.884-1.308-4.343-1.308t-4.394 1.256q-1.884 1.255-2.983 3.453-1.046 2.197-1.046 4.97 0 2.773 1.046 4.97 1.1 2.197 2.983 3.453 1.935 1.255 4.394 1.255zm34.216-23.962q-2.93.052-5.232 1.674-2.302 1.57-3.453 4.133v-2.668q0-1.046-.732-1.779-.68-.732-1.78-.732-1.046 0-1.778.732-.68.733-.68 1.78v22.39q0 1.1.68 1.832.68.68 1.779.68 1.098 0 1.779-.732.732-.733.732-1.78V68.247q0-2.406.942-4.342.994-1.988 2.51-3.087 1.57-1.15 3.192-1.15.628 0 1.727.366.941.314 1.412.314.942 0 1.57-.628.68-.68.68-1.936 0-1.046-.994-1.726-.994-.733-2.354-.733z" class="powerclip" style="font-weight:500;font-size:192px;line-height:1.25;font-family:Quicksand;-inkscape-font-specification:&quot;Quicksand Medium&quot;;letter-spacing:0;word-spacing:0;white-space:pre;fill:none;stroke-width:.272486"/></clipPath></defs><style>path{fill:#171717}@media (prefers-color-scheme:dark){path{fill:#f5f5f5}}</style><g style="stroke-width:0;stroke-dasharray:none"><path d="M53.746 35.74h33.866a16.896 16.896 0 0 1 16.934 16.933V86.54a16.896 16.896 0 0 1-16.934 16.933H53.746A16.896 16.896 0 0 1 36.812 86.54V52.673A16.896 16.896 0 0 1 53.746 35.74z" clip-path="url(#a)" style="fill-opacity:1;stroke:#000;stroke-width:0;stroke-dasharray:none;stroke-opacity:0" transform="translate(-36.812 -35.74)"/></g></svg>